<svg width="1920" height="23" viewBox="0 0 1920 23" fill="none" xmlns="http://www.w3.org/2000/svg">
<g clip-path="url(#clip0_3_17)">
<path d="M-127 1.56676C-116.229 1.56676 -110.956 6.66499 -105.372 12.064C-99.812 17.4411 -94.0627 23 -82.6667 23C-71.2707 23 -65.5213 17.4411 -59.9618 12.064C-54.3773 6.66499 -49.104 1.56676 -38.3333 1.56676C-27.5627 1.56676 -22.2893 6.66499 -16.7049 12.064C-11.1453 17.4411 -5.396 23 6 23C17.396 23 23.1453 17.4411 28.7049 12.064C34.2893 6.66499 39.5627 1.56676 50.3333 1.56676C61.104 1.56676 66.3773 6.66499 71.9618 12.064C77.5213 17.4411 83.2707 23 94.6667 23C106.063 23 111.812 17.4411 117.372 12.064C122.956 6.66499 128.229 1.56676 139 1.56676V0C127.604 0 121.855 5.55886 116.295 10.936C110.711 16.335 105.437 21.4332 94.6667 21.4332C83.896 21.4332 78.6227 16.335 73.0382 10.936C67.4787 5.55886 61.7293 0 50.3333 0C38.9373 0 33.188 5.55886 27.6284 10.936C22.044 16.335 16.7707 21.4332 6 21.4332C-4.77066 21.4332 -10.044 16.335 -15.6284 10.936C-21.1911 5.55886 -26.9404 0 -38.3364 0C-49.7324 0 -55.4818 5.55886 -61.0413 10.936C-66.6258 16.335 -71.8991 21.4332 -82.6698 21.4332C-93.4404 21.4332 -98.7138 16.335 -104.298 10.936C-109.855 5.55886 -115.604 0 -127 0V1.56676Z" fill="#19C1B6"/>
</g>
<g clip-path="url(#clip1_3_17)">
<path d="M139 1.56676C149.771 1.56676 155.044 6.66499 160.628 12.064C166.188 17.4411 171.937 23 183.333 23C194.729 23 200.479 17.4411 206.038 12.064C211.623 6.66499 216.896 1.56676 227.667 1.56676C238.437 1.56676 243.711 6.66499 249.295 12.064C254.855 17.4411 260.604 23 272 23C283.396 23 289.145 17.4411 294.705 12.064C300.289 6.66499 305.563 1.56676 316.333 1.56676C327.104 1.56676 332.377 6.66499 337.962 12.064C343.521 17.4411 349.271 23 360.667 23C372.063 23 377.812 17.4411 383.372 12.064C388.956 6.66499 394.229 1.56676 405 1.56676V0C393.604 0 387.855 5.55886 382.295 10.936C376.711 16.335 371.437 21.4332 360.667 21.4332C349.896 21.4332 344.623 16.335 339.038 10.936C333.479 5.55886 327.729 0 316.333 0C304.937 0 299.188 5.55886 293.628 10.936C288.044 16.335 282.771 21.4332 272 21.4332C261.229 21.4332 255.956 16.335 250.372 10.936C244.809 5.55886 239.06 0 227.664 0C216.268 0 210.518 5.55886 204.959 10.936C199.374 16.335 194.101 21.4332 183.33 21.4332C172.56 21.4332 167.286 16.335 161.702 10.936C156.145 5.55886 150.396 0 139 0V1.56676Z" fill="#19C1B6"/>
</g>
<g clip-path="url(#clip2_3_17)">
<path d="M405 1.56676C415.771 1.56676 421.044 6.66499 426.628 12.064C432.188 17.4411 437.937 23 449.333 23C460.729 23 466.479 17.4411 472.038 12.064C477.623 6.66499 482.896 1.56676 493.667 1.56676C504.437 1.56676 509.711 6.66499 515.295 12.064C520.855 17.4411 526.604 23 538 23C549.396 23 555.145 17.4411 560.705 12.064C566.289 6.66499 571.563 1.56676 582.333 1.56676C593.104 1.56676 598.377 6.66499 603.962 12.064C609.521 17.4411 615.271 23 626.667 23C638.063 23 643.812 17.4411 649.372 12.064C654.956 6.66499 660.229 1.56676 671 1.56676V0C659.604 0 653.855 5.55886 648.295 10.936C642.711 16.335 637.437 21.4332 626.667 21.4332C615.896 21.4332 610.623 16.335 605.038 10.936C599.479 5.55886 593.729 0 582.333 0C570.937 0 565.188 5.55886 559.628 10.936C554.044 16.335 548.771 21.4332 538 21.4332C527.229 21.4332 521.956 16.335 516.372 10.936C510.809 5.55886 505.06 0 493.664 0C482.268 0 476.518 5.55886 470.959 10.936C465.374 16.335 460.101 21.4332 449.33 21.4332C438.56 21.4332 433.286 16.335 427.702 10.936C422.145 5.55886 416.396 0 405 0V1.56676Z" fill="#19C1B6"/>
</g>
<g clip-path="url(#clip3_3_17)">
<path d="M671 1.56676C681.771 1.56676 687.044 6.66499 692.628 12.064C698.188 17.4411 703.937 23 715.333 23C726.729 23 732.479 17.4411 738.038 12.064C743.623 6.66499 748.896 1.56676 759.667 1.56676C770.437 1.56676 775.711 6.66499 781.295 12.064C786.855 17.4411 792.604 23 804 23C815.396 23 821.145 17.4411 826.705 12.064C832.289 6.66499 837.563 1.56676 848.333 1.56676C859.104 1.56676 864.377 6.66499 869.962 12.064C875.521 17.4411 881.271 23 892.667 23C904.063 23 909.812 17.4411 915.372 12.064C920.956 6.66499 926.229 1.56676 937 1.56676V0C925.604 0 919.855 5.55886 914.295 10.936C908.711 16.335 903.437 21.4332 892.667 21.4332C881.896 21.4332 876.623 16.335 871.038 10.936C865.479 5.55886 859.729 0 848.333 0C836.937 0 831.188 5.55886 825.628 10.936C820.044 16.335 814.771 21.4332 804 21.4332C793.229 21.4332 787.956 16.335 782.372 10.936C776.809 5.55886 771.06 0 759.664 0C748.268 0 742.518 5.55886 736.959 10.936C731.374 16.335 726.101 21.4332 715.33 21.4332C704.56 21.4332 699.286 16.335 693.702 10.936C688.145 5.55886 682.396 0 671 0V1.56676Z" fill="#19C1B6"/>
</g>
<g clip-path="url(#clip4_3_17)">
<path d="M937 1.56676C947.771 1.56676 953.044 6.66499 958.628 12.064C964.188 17.4411 969.937 23 981.333 23C992.729 23 998.479 17.4411 1004.04 12.064C1009.62 6.66499 1014.9 1.56676 1025.67 1.56676C1036.44 1.56676 1041.71 6.66499 1047.3 12.064C1052.85 17.4411 1058.6 23 1070 23C1081.4 23 1087.15 17.4411 1092.7 12.064C1098.29 6.66499 1103.56 1.56676 1114.33 1.56676C1125.1 1.56676 1130.38 6.66499 1135.96 12.064C1141.52 17.4411 1147.27 23 1158.67 23C1170.06 23 1175.81 17.4411 1181.37 12.064C1186.96 6.66499 1192.23 1.56676 1203 1.56676V0C1191.6 0 1185.85 5.55886 1180.3 10.936C1174.71 16.335 1169.44 21.4332 1158.67 21.4332C1147.9 21.4332 1142.62 16.335 1137.04 10.936C1131.48 5.55886 1125.73 0 1114.33 0C1102.94 0 1097.19 5.55886 1091.63 10.936C1086.04 16.335 1080.77 21.4332 1070 21.4332C1059.23 21.4332 1053.96 16.335 1048.37 10.936C1042.81 5.55886 1037.06 0 1025.66 0C1014.27 0 1008.52 5.55886 1002.96 10.936C997.374 16.335 992.101 21.4332 981.33 21.4332C970.56 21.4332 965.286 16.335 959.702 10.936C954.145 5.55886 948.396 0 937 0V1.56676Z" fill="#19C1B6"/>
</g>
<g clip-path="url(#clip5_3_17)">
<path d="M1203 1.56676C1213.77 1.56676 1219.04 6.66499 1224.63 12.064C1230.19 17.4411 1235.94 23 1247.33 23C1258.73 23 1264.48 17.4411 1270.04 12.064C1275.62 6.66499 1280.9 1.56676 1291.67 1.56676C1302.44 1.56676 1307.71 6.66499 1313.3 12.064C1318.85 17.4411 1324.6 23 1336 23C1347.4 23 1353.15 17.4411 1358.7 12.064C1364.29 6.66499 1369.56 1.56676 1380.33 1.56676C1391.1 1.56676 1396.38 6.66499 1401.96 12.064C1407.52 17.4411 1413.27 23 1424.67 23C1436.06 23 1441.81 17.4411 1447.37 12.064C1452.96 6.66499 1458.23 1.56676 1469 1.56676V0C1457.6 0 1451.85 5.55886 1446.3 10.936C1440.71 16.335 1435.44 21.4332 1424.67 21.4332C1413.9 21.4332 1408.62 16.335 1403.04 10.936C1397.48 5.55886 1391.73 0 1380.33 0C1368.94 0 1363.19 5.55886 1357.63 10.936C1352.04 16.335 1346.77 21.4332 1336 21.4332C1325.23 21.4332 1319.96 16.335 1314.37 10.936C1308.81 5.55886 1303.06 0 1291.66 0C1280.27 0 1274.52 5.55886 1268.96 10.936C1263.37 16.335 1258.1 21.4332 1247.33 21.4332C1236.56 21.4332 1231.29 16.335 1225.7 10.936C1220.15 5.55886 1214.4 0 1203 0V1.56676Z" fill="#19C1B6"/>
</g>
<g clip-path="url(#clip6_3_17)">
<path d="M1469 1.56676C1479.77 1.56676 1485.04 6.66499 1490.63 12.064C1496.19 17.4411 1501.94 23 1513.33 23C1524.73 23 1530.48 17.4411 1536.04 12.064C1541.62 6.66499 1546.9 1.56676 1557.67 1.56676C1568.44 1.56676 1573.71 6.66499 1579.3 12.064C1584.85 17.4411 1590.6 23 1602 23C1613.4 23 1619.15 17.4411 1624.7 12.064C1630.29 6.66499 1635.56 1.56676 1646.33 1.56676C1657.1 1.56676 1662.38 6.66499 1667.96 12.064C1673.52 17.4411 1679.27 23 1690.67 23C1702.06 23 1707.81 17.4411 1713.37 12.064C1718.96 6.66499 1724.23 1.56676 1735 1.56676V0C1723.6 0 1717.85 5.55886 1712.3 10.936C1706.71 16.335 1701.44 21.4332 1690.67 21.4332C1679.9 21.4332 1674.62 16.335 1669.04 10.936C1663.48 5.55886 1657.73 0 1646.33 0C1634.94 0 1629.19 5.55886 1623.63 10.936C1618.04 16.335 1612.77 21.4332 1602 21.4332C1591.23 21.4332 1585.96 16.335 1580.37 10.936C1574.81 5.55886 1569.06 0 1557.66 0C1546.27 0 1540.52 5.55886 1534.96 10.936C1529.37 16.335 1524.1 21.4332 1513.33 21.4332C1502.56 21.4332 1497.29 16.335 1491.7 10.936C1486.15 5.55886 1480.4 0 1469 0V1.56676Z" fill="#19C1B6"/>
</g>
<g clip-path="url(#clip7_3_17)">
<path d="M1733 1.56676C1743.77 1.56676 1749.04 6.66499 1754.63 12.064C1760.19 17.4411 1765.94 23 1777.33 23C1788.73 23 1794.48 17.4411 1800.04 12.064C1805.62 6.66499 1810.9 1.56676 1821.67 1.56676C1832.44 1.56676 1837.71 6.66499 1843.3 12.064C1848.85 17.4411 1854.6 23 1866 23C1877.4 23 1883.15 17.4411 1888.7 12.064C1894.29 6.66499 1899.56 1.56676 1910.33 1.56676C1921.1 1.56676 1926.38 6.66499 1931.96 12.064C1937.52 17.4411 1943.27 23 1954.67 23C1966.06 23 1971.81 17.4411 1977.37 12.064C1982.96 6.66499 1988.23 1.56676 1999 1.56676V0C1987.6 0 1981.85 5.55886 1976.3 10.936C1970.71 16.335 1965.44 21.4332 1954.67 21.4332C1943.9 21.4332 1938.62 16.335 1933.04 10.936C1927.48 5.55886 1921.73 0 1910.33 0C1898.94 0 1893.19 5.55886 1887.63 10.936C1882.04 16.335 1876.77 21.4332 1866 21.4332C1855.23 21.4332 1849.96 16.335 1844.37 10.936C1838.81 5.55886 1833.06 0 1821.66 0C1810.27 0 1804.52 5.55886 1798.96 10.936C1793.37 16.335 1788.1 21.4332 1777.33 21.4332C1766.56 21.4332 1761.29 16.335 1755.7 10.936C1750.15 5.55886 1744.4 0 1733 0V1.56676Z" fill="#19C1B6"/>
</g>
<defs>
<clipPath id="clip0_3_17">
<rect width="266" height="23" fill="white" transform="translate(-127)"/>
</clipPath>
<clipPath id="clip1_3_17">
<rect width="266" height="23" fill="white" transform="translate(139)"/>
</clipPath>
<clipPath id="clip2_3_17">
<rect width="266" height="23" fill="white" transform="translate(405)"/>
</clipPath>
<clipPath id="clip3_3_17">
<rect width="266" height="23" fill="white" transform="translate(671)"/>
</clipPath>
<clipPath id="clip4_3_17">
<rect width="266" height="23" fill="white" transform="translate(937)"/>
</clipPath>
<clipPath id="clip5_3_17">
<rect width="266" height="23" fill="white" transform="translate(1203)"/>
</clipPath>
<clipPath id="clip6_3_17">
<rect width="266" height="23" fill="white" transform="translate(1469)"/>
</clipPath>
<clipPath id="clip7_3_17">
<rect width="266" height="23" fill="white" transform="translate(1733)"/>
</clipPath>
</defs>
</svg>
