<?xml version="1.0" encoding="UTF-8"?><svg version="1.1" id="Layer_1" xmlns="http://www.w3.org/2000/svg" xmlns:xlink="http://www.w3.org/1999/xlink" x="0px" y="0px" viewBox="0 0 1000 1000" style="enable-background:new 0 0 1000 1000;" xml:space="preserve" width="1000px" height="1000px">

<path d="M370.6,316.3h252c17.7,0,32,14.3,32,32v301.1c0,17.7-14.3,32-32,32h-252c-17.7,0-32-14.3-32-32V348.3
	C338.6,330.7,352.9,316.3,370.6,316.3z" style="opacity:0.2;fill:#241228;stroke:#241228;stroke-width:6;stroke-linecap:round;stroke-linejoin:round;enable-background:new    ;"/>
<path d="M383.6,329.3h252c17.7,0,32,14.3,32,32V632c0,17.7-14.3,32-32,32h-252c-17.7,0-32-14.3-32-32V361.3
	C351.6,343.6,365.9,329.3,383.6,329.3z" style="fill:#EB6331;"/>
<path d="M635.6,649h-252c-17.7,0-32-14.3-32-32v15c0,17.7,14.3,32,32,32h252c17.7,0,32-14.3,32-32v-15
	C667.6,634.7,653.3,649,635.6,649z" style="fill:#DD562C;"/>
<g>
	<path d="M635.6,667h-252c-19.3,0-35-15.7-35-35V361.3c0-19.3,15.7-35,35-35h252c19.3,0,35,15.7,35,35V632
		C670.6,651.3,654.9,667,635.6,667z M383.6,332.3c-16,0-29,13-29,29V632c0,16,13,29,29,29h252c16,0,29-13,29-29V361.3
		c0-16-13-29-29-29H383.6z" style="fill:#511C64;"/>
</g>
<path d="M383.6,306.3h252c17.7,0,32,14.3,32,32V609c0,17.7-14.3,32-32,32h-252c-17.7,0-32-14.3-32-32V338.3
	C351.6,320.6,365.9,306.3,383.6,306.3z" style="fill:#FDA22F;"/>
<path d="M383.6,306.3h252c17.7,0,32,14.3,32,32V609c0,17.7-14.3,32-32,32h-252c-17.7,0-32-14.3-32-32V338.3
	C351.6,320.6,365.9,306.3,383.6,306.3z" style="fill:#FDA22F;"/>
<path d="M370.3,609V338.3c0-17.7,14.3-32,32-32h-18.7c-17.7,0-32,14.3-32,32V609c0,17.7,14.3,32,32,32h18.7
	C384.6,641,370.3,626.7,370.3,609z" style="fill:#FC9435;"/>
<path d="M635.6,306.3h-18.7c17.7,0,32,14.3,32,32V609c0,17.7-14.3,32-32,32h18.7c17.7,0,32-14.3,32-32V338.3
	C667.6,320.6,653.3,306.3,635.6,306.3z" style="fill:#FFB331;"/>
<g>
	<path d="M635.6,644h-252c-19.3,0-35-15.7-35-35V338.3c0-19.3,15.7-35,35-35h252c19.3,0,35,15.7,35,35V609
		C670.6,628.3,654.9,644,635.6,644z M383.6,309.3c-16,0-29,13-29,29V609c0,16,13,29,29,29h252c16,0,29-13,29-29V338.3
		c0-16-13-29-29-29H383.6z" style="fill:#511C64;"/>
</g>
<path d="M397.6,344h224c4.4,0,8,3.6,8,8v52c0,4.4-3.6,8-8,8h-224c-4.4,0-8-3.6-8-8v-52C389.6,347.6,393.2,344,397.6,344
	z" style="fill:#A5F3FF;"/>
<polygon points="592.9,360.5 591,358.5 592.9,356.6 607.6,356.6 609.5,358.2 607.5,360.5 " style="fill:#511C64;"/>
<polygon points="588.5,375.7 588.5,361 590.4,359.1 592.3,361 592.3,375.7 590.4,377.6 " style="opacity:0.2;fill:#511C64;enable-background:new    ;"/>
<polygon points="608.1,375.7 608.1,361 610,358.7 611.9,361 611.9,375.7 610,377.6 " style="fill:#511C64;"/>
<polygon points="592.9,380 591,378.1 592.9,376.2 607.5,376.2 609.5,378.1 607.5,380 " style="opacity:0.2;fill:#511C64;enable-background:new    ;"/>
<polygon points="588.5,395.6 588.5,380.9 590.4,379 592.3,380.9 592.3,395.6 590.4,397.5 " style="opacity:0.2;fill:#511C64;enable-background:new    ;"/>
<polygon points="608.1,395.6 608.1,380.9 610,378.7 611.9,380.9 611.9,395.6 610,397.5 " style="fill:#511C64;"/>
<polygon points="592.9,400 591,398 592.9,396.1 607.5,396.1 609.5,398 607.5,400 " style="opacity:0.2;fill:#511C64;enable-background:new    ;"/>
<polygon points="558.3,360.5 556.3,358.5 558.3,356.6 572.9,356.6 574.8,358.2 572.9,360.5 " style="fill:#511C64;"/>
<polygon points="553.9,375.7 553.9,361 555.8,359.1 557.7,361 557.7,375.7 555.8,377.6 " style="opacity:0.2;fill:#511C64;enable-background:new    ;"/>
<polygon points="573.5,375.7 573.5,361 575.4,358.7 577.3,361 577.3,375.7 575.4,377.6 " style="fill:#511C64;"/>
<polygon points="558.3,380 556.3,378.1 558.3,376.2 572.9,376.2 574.8,378.1 572.9,380 " style="fill:#511C64;"/>
<polygon points="553.9,395.6 553.9,380.9 555.8,379 557.7,380.9 557.7,395.6 555.8,397.5 " style="opacity:0.2;fill:#511C64;enable-background:new    ;"/>
<polygon points="573.5,395.6 573.5,380.9 575.4,378.7 577.3,380.9 577.3,395.6 575.4,397.5 " style="fill:#511C64;"/>
<polygon points="558.3,400 556.3,398 558.3,396.1 572.9,396.1 574.8,398 572.9,400 " style="fill:#511C64;"/>
<g style="opacity:0.2;">
	<polygon points="488.8,360.5 486.9,358.5 488.8,356.6 503.5,356.6 505.4,358.2 503.5,360.5 	" style="fill:#511C64;"/>
	<polygon points="484.4,375.7 484.4,361 486.4,359.1 488.3,361 488.3,375.7 486.4,377.6 	" style="fill:#511C64;"/>
	<polygon points="504,375.7 504,361 505.9,358.7 507.9,361 507.9,375.7 505.9,377.6 	" style="fill:#511C64;"/>
	<polygon points="488.8,380 486.9,378.1 488.8,376.2 503.5,376.2 505.4,378.1 503.5,380 	" style="fill:#511C64;"/>
	<polygon points="484.4,395.6 484.4,380.9 486.4,379 488.3,380.9 488.3,395.6 486.4,397.5 	" style="fill:#511C64;"/>
	<polygon points="504,395.6 504,380.9 505.9,378.7 507.9,380.9 507.9,395.6 505.9,397.5 	" style="fill:#511C64;"/>
	<polygon points="488.8,400 486.9,398 488.8,396.1 503.5,396.1 505.4,398 503.5,400 	" style="fill:#511C64;"/>
</g>
<g style="opacity:0.2;">
	<polygon points="523.5,360.5 521.6,358.5 523.5,356.6 538.2,356.6 540.1,358.2 538.2,360.5 	" style="fill:#511C64;"/>
	<polygon points="519.1,375.7 519.1,361 521,359.1 523,361 523,375.7 521,377.6 	" style="fill:#511C64;"/>
	<polygon points="538.7,375.7 538.7,361 540.6,358.7 542.5,361 542.5,375.7 540.6,377.6 	" style="fill:#511C64;"/>
	<polygon points="523.5,380 521.6,378.1 523.5,376.2 538.2,376.2 540.1,378.1 538.2,380 	" style="fill:#511C64;"/>
	<polygon points="519.1,395.6 519.1,380.9 521,379 523,380.9 523,395.6 521,397.5 	" style="fill:#511C64;"/>
	<polygon points="538.7,395.6 538.7,380.9 540.6,378.7 542.5,380.9 542.5,395.6 540.6,397.5 	" style="fill:#511C64;"/>
	<polygon points="523.5,400 521.6,398 523.5,396.1 538.2,396.1 540.1,398 538.2,400 	" style="fill:#511C64;"/>
</g>
<g style="opacity:0.2;">
	<polygon points="419.5,360.5 417.5,358.5 419.5,356.6 434.1,356.6 436,358.2 434.1,360.5 	" style="fill:#511C64;"/>
	<polygon points="415.1,375.7 415.1,361 417,359.1 418.9,361 418.9,375.7 417,377.6 	" style="fill:#511C64;"/>
	<polygon points="434.7,375.7 434.7,361 436.6,358.7 438.5,361 438.5,375.7 436.6,377.6 	" style="fill:#511C64;"/>
	<polygon points="419.5,380 417.5,378.1 419.5,376.2 434.1,376.2 436,378.1 434.1,380 	" style="fill:#511C64;"/>
	<polygon points="415.1,395.6 415.1,380.9 417,379 418.9,380.9 418.9,395.6 417,397.5 	" style="fill:#511C64;"/>
	<polygon points="434.7,395.6 434.7,380.9 436.6,378.7 438.5,380.9 438.5,395.6 436.6,397.5 	" style="fill:#511C64;"/>
	<polygon points="419.5,400 417.5,398 419.5,396.1 434.1,396.1 436,398 434.1,400 	" style="fill:#511C64;"/>
</g>
<g style="opacity:0.2;">
	<polygon points="454.1,360.5 452.2,358.5 454.1,356.6 468.8,356.6 470.7,358.2 468.8,360.5 	" style="fill:#511C64;"/>
	<polygon points="449.8,375.7 449.8,361 451.7,359.1 453.6,361 453.6,375.7 451.7,377.6 	" style="fill:#511C64;"/>
	<polygon points="469.3,375.7 469.3,361 471.3,358.7 473.2,361 473.2,375.7 471.3,377.6 	" style="fill:#511C64;"/>
	<polygon points="454.1,380 452.2,378.1 454.1,376.2 468.8,376.2 470.7,378.1 468.8,380 	" style="fill:#511C64;"/>
	<polygon points="449.8,395.6 449.8,380.9 451.7,379 453.6,380.9 453.6,395.6 451.7,397.5 	" style="fill:#511C64;"/>
	<polygon points="469.3,395.6 469.3,380.9 471.3,378.7 473.2,380.9 473.2,395.6 471.3,397.5 	" style="fill:#511C64;"/>
	<polygon points="454.1,400 452.2,398 454.1,396.1 468.8,396.1 470.7,398 468.8,400 	" style="fill:#511C64;"/>
</g>
<path d="M397.6,344h224c4.4,0,8,3.6,8,8v6c0,4.4-3.6,8-8,8h-224c-4.4,0-8-3.6-8-8v-6C389.6,347.6,393.2,344,397.6,344z
	" style="opacity:0.43;fill:#D2FCFB;enable-background:new    ;"/>
<g>
	<path d="M621.6,415h-224c-6.1,0-11-4.9-11-11v-52c0-6.1,4.9-11,11-11h224c6.1,0,11,4.9,11,11v52
		C632.6,410.1,627.7,415,621.6,415z M397.6,347c-2.8,0-5,2.2-5,5v52c0,2.8,2.2,5,5,5h224c2.8,0,5-2.2,5-5v-52c0-2.8-2.2-5-5-5H397.6
		z" style="fill:#511C64;"/>
</g>
<path d="M390.6,448.8h48c4.4,0,8,3.6,8,8v48c0,4.4-3.6,8-8,8h-48c-4.4,0-8-3.6-8-8v-48
	C382.6,452.4,386.2,448.8,390.6,448.8z" style="fill:#FC9435;stroke:#FC9435;stroke-width:6;stroke-miterlimit:10;"/>
<path d="M479.2,448.8h48c4.4,0,8,3.6,8,8v48c0,4.4-3.6,8-8,8h-48c-4.4,0-8-3.6-8-8v-48
	C471.2,452.4,474.8,448.8,479.2,448.8z" style="fill:#FC9435;stroke:#FC9435;stroke-width:6;stroke-miterlimit:10;"/>
<path d="M390.6,537.3h48c4.4,0,8,3.6,8,8v48c0,4.4-3.6,8-8,8h-48c-4.4,0-8-3.6-8-8v-48
	C382.6,540.9,386.2,537.3,390.6,537.3z" style="fill:#FC9435;stroke:#FC9435;stroke-width:6;stroke-miterlimit:10;"/>
<path d="M479.2,537.3h48c4.4,0,8,3.6,8,8v48c0,4.4-3.6,8-8,8h-48c-4.4,0-8-3.6-8-8v-48
	C471.2,540.9,474.8,537.3,479.2,537.3z" style="fill:#FC9435;stroke:#FC9435;stroke-width:6;stroke-miterlimit:10;"/>
<path d="M567.2,448.8h48c4.4,0,8,3.6,8,8v136.5c0,4.4-3.6,8-8,8h-48c-4.4,0-8-3.6-8-8V456.8
	C559.2,452.4,562.8,448.8,567.2,448.8z" style="fill:#FC9435;stroke:#FC9435;stroke-width:6;stroke-miterlimit:10;"/>
<path d="M485.6,442.8h48c4.4,0,8,3.6,8,8v48c0,4.4-3.6,8-8,8h-48c-4.4,0-8-3.6-8-8v-48
	C477.6,446.4,481.2,442.8,485.6,442.8z" style="fill:#FF82A0;"/>
<path d="M573.6,442.8h48c4.4,0,8,3.6,8,8v136c0,4.4-3.6,8-8,8h-48c-4.4,0-8-3.6-8-8v-136
	C565.6,446.4,569.2,442.8,573.6,442.8z" style="fill:#B078FD;"/>
<path d="M577.5,587.8c-2.1,0-3.9-1.7-3.9-3.9l0,0V442.8c-4.4,0-8,3.6-8,8v136c0,4.4,3.6,8,8,8h48c4,0,7.4-3,7.9-7
	H577.5z" style="fill:#A270F2;"/>
<g>
	<path d="M621.6,597.8h-48c-6.1,0-11-4.9-11-11v-136c0-6.1,4.9-11,11-11h48c6.1,0,11,4.9,11,11v136
		C632.6,592.9,627.7,597.8,621.6,597.8z M573.6,445.8c-2.8,0-5,2.2-5,5v136c0,2.8,2.2,5,5,5h48c2.8,0,5-2.2,5-5v-136
		c0-2.8-2.2-5-5-5H573.6z" style="fill:#511C64;"/>
</g>
<rect x="583.2" y="506" width="28.8" height="7.2" style="fill:#511C64;"/>
<rect x="583.2" y="516.8" width="28.8" height="7.2" style="fill:#511C64;"/>
<g>
	<path d="M620.5,479.3c-0.8,0-1.5-0.7-1.5-1.5v-19.7c0-2.8-2.3-5.2-5.2-5.2H609c-0.8,0-1.5-0.7-1.5-1.5
		s0.7-1.5,1.5-1.5h4.8c4.5,0,8.2,3.7,8.2,8.2v19.7C622,478.7,621.3,479.3,620.5,479.3z" style="fill:#FFFFFF;"/>
</g>
<path d="M489.5,499.8c-2.1,0-3.9-1.7-3.9-3.9l0,0v-53.1c-4.4,0-8,3.6-8,8v48c0,4.4,3.6,8,8,8h48c4,0,7.4-3,7.9-7H489.5
	z" style="fill:#F27095;"/>
<g>
	<path d="M533.6,509.8h-48c-6.1,0-11-4.9-11-11v-48c0-6.1,4.9-11,11-11h48c6.1,0,11,4.9,11,11v48
		C544.6,504.9,539.7,509.8,533.6,509.8z M485.6,445.8c-2.8,0-5,2.2-5,5v48c0,2.8,2.2,5,5,5h48c2.8,0,5-2.2,5-5v-48c0-2.8-2.2-5-5-5
		H485.6z" style="fill:#511C64;"/>
</g>
<rect x="497" y="471.7" width="25.1" height="6.3" style="fill:#511C64;"/>
<g>
	<path d="M532.5,464.5c-0.8,0-1.5-0.7-1.5-1.5v-6.9c0-1.7-1.4-3.1-3.1-3.1h-2.2c-0.8,0-1.5-0.7-1.5-1.5
		s0.7-1.5,1.5-1.5h2.2c3.4,0,6.1,2.7,6.1,6.1v6.9C534,463.8,533.3,464.5,532.5,464.5z" style="fill:#FFFFFF;"/>
</g>
<path d="M397.6,442.8h48c4.4,0,8,3.6,8,8v48c0,4.4-3.6,8-8,8h-48c-4.4,0-8-3.6-8-8v-48
	C389.6,446.4,393.2,442.8,397.6,442.8z" style="fill:#FF82A0;"/>
<path d="M401.5,499.8c-2.1,0-3.9-1.7-3.9-3.9l0,0v-53.1c-4.4,0-8,3.6-8,8v48c0,4.4,3.6,8,8,8h48c4,0,7.4-3,7.9-7H401.5
	z" style="fill:#F27095;"/>
<g>
	<path d="M445.6,509.8h-48c-6.1,0-11-4.9-11-11v-48c0-6.1,4.9-11,11-11h48c6.1,0,11,4.9,11,11v48
		C456.6,504.9,451.7,509.8,445.6,509.8z M397.6,445.8c-2.8,0-5,2.2-5,5v48c0,2.8,2.2,5,5,5h48c2.8,0,5-2.2,5-5v-48c0-2.8-2.2-5-5-5
		H397.6z" style="fill:#511C64;"/>
</g>
<rect x="407.6" y="471.7" width="25.1" height="6.3" style="fill:#511C64;"/>
<rect x="417" y="462.3" width="6.3" height="25.1" style="fill:#511C64;"/>
<g>
	<path d="M444,464.5c-0.8,0-1.5-0.7-1.5-1.5v-6.9c0-1.7-1.4-3.1-3.1-3.1h-2.2c-0.8,0-1.5-0.7-1.5-1.5s0.7-1.5,1.5-1.5
		h2.2c3.4,0,6.1,2.7,6.1,6.1v6.9C445.5,463.8,444.8,464.5,444,464.5z" style="fill:#FFFFFF;"/>
</g>
<path d="M397.6,530.8h48c4.4,0,8,3.6,8,8v48c0,4.4-3.6,8-8,8h-48c-4.4,0-8-3.6-8-8v-48
	C389.6,534.4,393.2,530.8,397.6,530.8z" style="fill:#FF82A0;"/>
<path d="M401.5,587.8c-2.1,0-3.9-1.7-3.9-3.9l0,0v-53.1c-4.4,0-8,3.6-8,8v48c0,4.4,3.6,8,8,8h48c4,0,7.4-3,7.9-7H401.5
	z" style="fill:#F27095;"/>
<g>
	<path d="M445.6,597.8h-48c-6.1,0-11-4.9-11-11v-48c0-6.1,4.9-11,11-11h48c6.1,0,11,4.9,11,11v48
		C456.6,592.9,451.7,597.8,445.6,597.8z M397.6,533.8c-2.8,0-5,2.2-5,5v48c0,2.8,2.2,5,5,5h48c2.8,0,5-2.2,5-5v-48c0-2.8-2.2-5-5-5
		H397.6z" style="fill:#511C64;"/>
</g>
<rect x="418.4" y="550.3" transform="matrix(0.7071 -0.7071 0.7071 0.7071 -274.5085 462.964)" width="6.3" height="25.1" style="fill:#511C64;"/>
<rect x="409" y="559.7" transform="matrix(0.7071 -0.7071 0.7071 0.7071 -274.5082 462.9641)" width="25.1" height="6.3" style="fill:#511C64;"/>
<g>
	<path d="M444,553.2c-0.8,0-1.5-0.7-1.5-1.5v-6.9c0-1.7-1.4-3.1-3.1-3.1h-2.2c-0.8,0-1.5-0.7-1.5-1.5s0.7-1.5,1.5-1.5
		h2.2c3.4,0,6.1,2.7,6.1,6.1v6.9C445.5,552.6,444.8,553.2,444,553.2z" style="fill:#FFFFFF;"/>
</g>
<path d="M485.6,530.8h48c4.4,0,8,3.6,8,8v48c0,4.4-3.6,8-8,8h-48c-4.4,0-8-3.6-8-8v-48
	C477.6,534.4,481.2,530.8,485.6,530.8z" style="fill:#FF82A0;"/>
<path d="M489.5,587.8c-2.1,0-3.9-1.7-3.9-3.9l0,0v-53.1c-4.4,0-8,3.6-8,8v48c0,4.4,3.6,8,8,8h48c4,0,7.4-3,7.9-7H489.5
	z" style="fill:#F27095;"/>
<g>
	<path d="M533.6,597.8h-48c-6.1,0-11-4.9-11-11v-48c0-6.1,4.9-11,11-11h48c6.1,0,11,4.9,11,11v48
		C544.6,592.9,539.7,597.8,533.6,597.8z M485.6,533.8c-2.8,0-5,2.2-5,5v48c0,2.8,2.2,5,5,5h48c2.8,0,5-2.2,5-5v-48c0-2.8-2.2-5-5-5
		H485.6z" style="fill:#511C64;"/>
</g>
<rect x="497" y="559.7" width="25.1" height="6.3" style="fill:#511C64;"/>
<rect x="506.4" y="569.1" width="6.3" height="6.3" style="fill:#511C64;"/>
<rect x="506.4" y="550.3" width="6.3" height="6.3" style="fill:#511C64;"/>
<g>
	<path d="M532.5,553.2c-0.8,0-1.5-0.7-1.5-1.5v-6.9c0-1.7-1.4-3.1-3.1-3.1h-2.2c-0.8,0-1.5-0.7-1.5-1.5
		s0.7-1.5,1.5-1.5h2.2c3.4,0,6.1,2.7,6.1,6.1v6.9C534,552.6,533.3,553.2,532.5,553.2z" style="fill:#FFFFFF;"/>
</g>
</svg>