<svg width="1920" height="1920" viewBox="0 0 1920 1920" fill="none" xmlns="http://www.w3.org/2000/svg">
<mask id="mask0_9_804" style="mask-type:luminance" maskUnits="userSpaceOnUse" x="382" y="382" width="1156" height="1156">
<path d="M382.8 382.8H1537.2V1537.2H382.8V382.8Z" fill="white"/>
</mask>
<g mask="url(#mask0_9_804)">
<mask id="mask1_9_804" style="mask-type:luminance" maskUnits="userSpaceOnUse" x="382" y="382" width="1156" height="1156">
<path d="M960 382.8C641.22 382.8 382.8 641.22 382.8 960C382.8 1278.78 641.22 1537.2 960 1537.2C1278.78 1537.2 1537.2 1278.78 1537.2 960C1537.2 641.22 1278.78 382.8 960 382.8Z" fill="white"/>
</mask>
<g mask="url(#mask1_9_804)">
<path d="M382.8 382.8H1537.2V1537.2H382.8V382.8Z" fill="#00609E"/>
</g>
</g>
<mask id="mask2_9_804" style="mask-type:luminance" maskUnits="userSpaceOnUse" x="555" y="555" width="810" height="810">
<path d="M555.48 555.48H1364.52V1364.52H555.48V555.48Z" fill="white"/>
</mask>
<g mask="url(#mask2_9_804)">
<mask id="mask3_9_804" style="mask-type:luminance" maskUnits="userSpaceOnUse" x="555" y="555" width="810" height="810">
<path d="M960 555.48C736.58 555.48 555.48 736.58 555.48 960C555.48 1183.42 736.58 1364.52 960 1364.52C1183.42 1364.52 1364.52 1183.42 1364.52 960C1364.52 736.58 1183.42 555.48 960 555.48Z" fill="white"/>
</mask>
<g mask="url(#mask3_9_804)">
<path d="M555.48 555.48H1364.52V1364.52H555.48V555.48Z" fill="white"/>
</g>
</g>
<mask id="mask4_9_804" style="mask-type:luminance" maskUnits="userSpaceOnUse" x="958" y="914" width="367" height="234">
<path d="M958.9 914.14H1324.16V1147.32H958.9V914.14Z" fill="white"/>
</mask>
<g mask="url(#mask4_9_804)">
<path d="M1213.6 914.483L1324.06 1030.26C1078.22 1030.76 958.92 1147.32 958.92 1147.32C958.92 1147.32 1019.24 956.363 1213.6 914.483Z" fill="#36A5DD"/>
</g>
<mask id="mask5_9_804" style="mask-type:luminance" maskUnits="userSpaceOnUse" x="1002" y="1045" width="340" height="84">
<path d="M1002.06 1045.36H1341.5V1128.98H1002.06V1045.36Z" fill="white"/>
</mask>
<g mask="url(#mask5_9_804)">
<path d="M1341.5 1120.68C1179.66 1081.3 1061.5 1107.52 1002.14 1128.52C1050.44 1097.98 1139.32 1055.54 1270.14 1045.88L1341.5 1120.68Z" fill="#00609E"/>
</g>
<mask id="mask6_9_804" style="mask-type:luminance" maskUnits="userSpaceOnUse" x="597" y="905" width="363" height="243">
<path d="M597.5 905.14H959.54V1147.32H597.5V905.14Z" fill="white"/>
</mask>
<g mask="url(#mask6_9_804)">
<path d="M712.6 905.68L598.14 1017.5C843.8 1026.64 958.92 1147.32 958.92 1147.32C958.92 1147.32 905.38 954.36 712.6 905.68Z" fill="#36A5DD"/>
</g>
<mask id="mask7_9_804" style="mask-type:luminance" maskUnits="userSpaceOnUse" x="577" y="1034" width="340" height="98">
<path d="M577.42 1034.24H916.48V1131.52H577.42V1034.24Z" fill="white"/>
</mask>
<g mask="url(#mask7_9_804)">
<path d="M577.52 1107.26C740.64 1073.6 857.8 1103.94 916.4 1127.02C869.2 1094.8 781.88 1049.26 651.48 1035L577.52 1107.26Z" fill="#00609E"/>
</g>
<path d="M1239.36 847.22L1223.52 888.62C1120.9 909.36 1053.84 974.1 1015.6 1024.84C1047.92 966.1 1115.9 876.42 1239.36 847.22Z" fill="#CEA348"/>
<path d="M682.68 835.82L697.14 878.02C802.7 901 869.42 969.78 906.6 1022.92C875.84 962.02 809.28 867.8 682.68 835.82Z" fill="#CEA348"/>
<path d="M961.82 983.34C961.82 983.34 904.42 881.54 824.98 857.26C824.98 857.26 939.88 956.16 959.12 1135.98C984.7 956.94 1103 862.16 1103 862.16C1022.74 883.62 961.82 983.34 961.82 983.34Z" fill="#00609E"/>
<path d="M1000.84 886.4C1001.24 863.66 984.86 844.94 964.26 844.58C943.66 844.22 926.62 862.36 926.22 885.08C925.82 907.82 942.2 926.54 962.8 926.9C983.42 927.26 1000.44 909.14 1000.84 886.4Z" fill="#00609E"/>
<path d="M1013.08 750.2L945.64 749L944.44 816.34L1011.88 817.54L1013.08 750.2Z" fill="#36A5DD"/>
<path d="M1047.38 717.12L1013.66 716.52L1013.08 750.2L1046.8 750.78L1047.38 717.12Z" fill="#36A5DD"/>
<path d="M1113.96 798.2L1080.24 797.6L1079.66 831.26L1113.38 831.86L1113.96 798.2Z" fill="#00609E"/>
<path d="M1054.3 784.6L1038.1 784.32L1037.82 800.5L1054.02 800.78L1054.3 784.6Z" fill="#CEA348"/>
<path d="M1213.12 758.52L1182.02 757.98L1181.48 789.04L1212.58 789.58L1213.12 758.52Z" fill="#CEA348"/>
<path d="M1154.16 829.54L1137.96 829.24L1137.68 845.44L1153.88 845.72L1154.16 829.54Z" fill="#F8B31A"/>
<mask id="mask8_9_804" style="mask-type:luminance" maskUnits="userSpaceOnUse" x="1085" y="705" width="32" height="28">
<path d="M1085.44 705.72H1116.16V732.16H1085.44V705.72Z" fill="white"/>
</mask>
<g mask="url(#mask8_9_804)">
<path d="M1114.28 706.16L1089.96 705.72L1089.54 730L1113.84 730.42L1114.28 706.16Z" fill="#CEA348"/>
</g>
<path d="M1143.2 740.22L1118.66 739.78L1118.22 764.3L1142.78 764.74L1143.2 740.22Z" fill="#F8B31A"/>
<path d="M507.721 845.26L501.081 875.18L515.881 883.98L512.201 900.62L438.761 854.62L442.841 836.62L528.601 826.78L524.841 843.5L507.721 845.26ZM492.921 846.62L459.641 850.06L488.361 867.42L492.921 846.62Z" fill="white"/>
<path d="M522.169 799.924L537.609 805.284L532.009 821.124L516.569 815.764L522.169 799.924Z" fill="white"/>
<path d="M557.734 764.946C556.394 767.626 554.874 770.106 553.174 772.386C551.514 774.686 549.434 776.866 546.934 778.946C544.414 780.986 541.754 782.526 538.934 783.586C536.114 784.606 532.854 785.006 529.174 784.786C525.454 784.526 521.574 783.406 517.574 781.426L467.814 757.186L475.174 742.066L524.934 766.306C529.414 768.506 533.254 768.946 536.454 767.666C539.654 766.386 542.414 763.386 544.774 758.626C547.054 753.886 547.694 749.886 546.694 746.626C545.674 743.326 542.954 740.586 538.534 738.386L488.774 714.146L496.134 699.026L545.894 723.266C549.894 725.246 553.114 727.626 555.574 730.386C558.074 733.106 559.774 735.906 560.694 738.786C561.654 741.626 562.094 744.666 562.054 747.906C561.994 751.106 561.574 754.106 560.774 756.866C560.014 759.586 559.014 762.286 557.734 764.946Z" fill="white"/>
<path d="M571.84 702.218L585.6 711.018L576.56 725.178L562.8 716.378L571.84 702.218Z" fill="white"/>
<path d="M580.349 668.509L602.909 686.829L592.349 699.869L528.989 648.429L551.629 620.429C557.029 613.829 562.829 610.149 569.069 609.389C575.269 608.649 581.549 610.869 587.949 616.029C594.349 621.269 598.049 627.149 599.069 633.709C600.069 640.229 598.229 646.389 593.549 652.189L580.349 668.509ZM569.389 659.629L579.309 647.389C582.149 643.929 583.449 640.789 583.229 637.949C583.029 635.069 581.309 632.329 578.109 629.709C574.809 627.049 571.749 625.909 568.909 626.269C566.089 626.649 563.269 628.569 560.429 632.029L550.509 644.269L569.389 659.629Z" fill="white"/>
<path d="M638.699 622.891L650.139 634.491L638.139 646.331L626.699 634.731L638.699 622.891Z" fill="white"/>
<path d="M699.143 525.517L686.183 534.317C683.623 531.017 680.523 529.277 676.903 529.117C673.283 528.957 669.263 530.397 664.823 533.437C661.263 535.897 658.963 538.597 657.943 541.517C656.883 544.397 657.223 547.117 658.983 549.677C660.643 552.077 662.783 553.317 665.383 553.357C667.943 553.357 672.023 552.137 677.623 549.677L689.543 544.477C696.623 541.497 702.583 540.517 707.383 541.517C712.223 542.477 716.463 545.597 720.103 550.877C724.743 557.717 725.943 564.717 723.703 571.917C721.503 579.077 716.063 585.597 707.383 591.517C698.783 597.397 690.783 600.077 683.383 599.597C676.023 599.077 669.683 595.357 664.343 588.477L677.783 579.197C680.503 582.617 683.783 584.397 687.623 584.557C691.503 584.717 695.803 583.197 700.503 579.997C704.703 577.117 707.483 574.057 708.823 570.797C710.143 567.497 709.863 564.457 707.943 561.677C706.063 558.917 703.663 557.477 700.743 557.357C697.803 557.197 693.743 558.277 688.583 560.557L677.943 565.117C670.263 568.537 664.063 569.837 659.303 569.037C654.503 568.237 650.303 565.237 646.663 559.997C642.243 553.497 640.983 546.917 642.903 540.237C644.823 533.517 649.823 527.397 657.863 521.837C659.463 520.777 661.123 519.797 662.823 518.877C664.483 517.977 666.343 517.117 668.423 516.317C670.503 515.477 672.563 514.857 674.583 514.477C676.543 514.117 678.623 513.977 680.823 514.077C683.063 514.197 685.183 514.637 687.223 515.437C689.243 516.197 691.303 517.417 693.383 519.117C695.463 520.837 697.383 522.957 699.143 525.517Z" fill="white"/>
<path d="M764.484 495.926C763.844 495.126 763.284 494.466 762.804 493.926C762.324 493.346 761.544 492.606 760.484 491.686C759.464 490.726 758.364 490.006 757.204 489.526C756.084 489.006 754.764 488.546 753.284 488.166C751.784 487.806 750.104 487.806 748.244 488.166C746.364 488.486 744.424 489.126 742.404 490.086C736.484 492.866 732.904 497.366 731.684 503.606C730.404 509.806 731.664 516.946 735.444 525.046C739.224 533.106 743.804 538.626 749.204 541.606C754.644 544.606 760.284 544.726 766.164 542.006C770.904 539.766 774.084 536.706 775.684 532.806C777.324 528.866 777.284 524.406 775.524 519.446L790.324 512.486C793.784 521.126 793.844 529.286 790.484 536.966C787.164 544.646 780.924 550.626 771.764 554.886C761.524 559.686 751.764 560.046 742.484 555.926C733.204 551.826 725.804 543.846 720.244 532.006C714.604 520.066 713.184 509.186 716.004 499.366C718.784 489.566 725.404 482.226 735.844 477.366C744.584 473.266 752.844 472.226 760.644 474.246C768.424 476.286 774.564 481.246 779.044 489.126L764.484 495.926Z" fill="white"/>
<path d="M846.382 486.881L815.262 495.521L825.102 531.121L809.022 535.601L787.262 456.961L803.342 452.481L811.502 481.921L842.622 473.281L834.462 443.841L850.782 439.361L872.542 518.001L856.222 522.481L846.382 486.881Z" fill="white"/>
<path d="M882.299 497.75C878.499 491.67 876.219 484.53 875.419 476.31C874.619 468.11 875.499 460.61 878.059 453.83C880.619 447.07 884.659 441.59 890.219 437.43C895.819 433.23 902.499 430.75 910.299 429.99C922.079 428.87 931.939 431.91 939.899 439.11C947.839 446.31 952.419 456.37 953.659 469.27C954.179 475.15 953.779 480.71 952.459 485.99C951.179 491.27 949.039 495.97 946.059 500.07C943.119 504.13 939.279 507.49 934.539 510.15C929.839 512.83 924.499 514.45 918.539 515.03C910.699 515.79 903.619 514.61 897.339 511.51C891.099 508.37 886.079 503.79 882.299 497.75ZM911.739 444.23C904.959 444.87 899.779 447.97 896.219 453.51C892.699 459.07 891.339 466.11 892.139 474.63C892.939 483.17 895.599 489.81 900.139 494.55C904.719 499.31 910.399 501.35 917.179 500.71C923.839 500.07 928.979 497.01 932.619 491.51C936.299 486.03 937.739 479.11 936.939 470.79C936.079 461.99 933.379 455.23 928.859 450.47C924.319 445.67 918.619 443.59 911.739 444.23Z" fill="white"/>
<path d="M967.276 491.077C964.656 484.417 963.696 476.977 964.396 468.757C965.076 460.557 967.296 453.357 971.036 447.157C974.756 440.977 979.756 436.337 985.996 433.237C992.276 430.097 999.296 428.877 1007.04 429.557C1018.82 430.577 1027.96 435.357 1034.48 443.877C1040.98 452.417 1043.68 463.137 1042.56 476.037C1042.08 481.857 1040.68 487.237 1038.4 492.197C1036.16 497.157 1033.22 501.397 1029.6 504.917C1025.96 508.377 1021.6 510.997 1016.48 512.757C1011.36 514.517 1005.78 515.157 999.756 514.677C991.956 513.977 985.236 511.557 979.596 507.397C973.996 503.197 969.876 497.757 967.276 491.077ZM1005.84 443.797C999.056 443.217 993.436 445.317 988.956 450.117C984.476 454.917 981.856 461.617 981.116 470.197C980.356 478.677 981.796 485.697 985.436 491.237C989.056 496.737 994.256 499.777 1001.04 500.357C1007.76 500.957 1013.38 498.877 1017.92 494.117C1022.5 489.317 1025.14 482.797 1025.84 474.517C1026.64 465.677 1025.22 458.497 1021.6 452.997C1018.02 447.457 1012.76 444.397 1005.84 443.797Z" fill="white"/>
<path d="M1083.75 443.035L1067.19 508.475L1104.95 517.995L1101.51 531.675L1047.51 517.995L1067.51 438.875L1083.75 443.035Z" fill="white"/>
<path d="M1192.54 542.511L1178.62 565.951L1164.22 557.391L1205.9 487.231L1220.3 495.791L1201.98 526.591L1247.74 512.111L1264.7 522.191L1218.7 535.791L1226.06 594.111L1208.86 583.871L1204.22 539.231L1192.54 542.511Z" fill="white"/>
<path d="M1252.28 620.164C1250.04 618.244 1248 616.184 1246.2 614.004C1244.44 611.804 1242.86 609.224 1241.48 606.244C1240.08 603.304 1239.24 600.344 1238.92 597.364C1238.6 594.364 1239.02 591.124 1240.2 587.604C1241.42 584.084 1243.44 580.644 1246.28 577.284L1282.2 535.124L1295 546.004L1259.08 588.164C1255.88 591.944 1254.48 595.544 1254.92 598.964C1255.4 602.364 1257.64 605.784 1261.64 609.204C1265.64 612.564 1269.34 614.164 1272.76 614.004C1276.22 613.884 1279.52 611.964 1282.68 608.244L1318.6 566.084L1331.4 576.964L1295.48 619.124C1292.64 622.484 1289.58 625.004 1286.28 626.724C1283.02 628.484 1279.9 629.444 1276.92 629.604C1273.92 629.804 1270.88 629.484 1267.8 628.644C1264.7 627.784 1261.9 626.644 1259.4 625.204C1256.88 623.764 1254.52 622.084 1252.28 620.164Z" fill="white"/>
<path d="M1317.89 684.606L1339.89 623.326L1296.77 659.486L1286.05 646.686L1348.53 594.206L1359.65 607.406L1337.89 667.806L1380.37 632.126L1391.17 645.006L1328.69 697.486L1317.89 684.606Z" fill="white"/>
<path d="M1410.36 701.714L1352.52 736.594L1343.8 722.114L1401.64 687.234L1388.92 666.034L1401 658.754L1434.76 714.754L1422.68 722.034L1410.36 701.714Z" fill="white"/>
<path d="M1400.46 800.015L1388.94 771.615L1371.66 772.815L1365.26 756.975L1451.82 753.055L1458.78 770.095L1393.74 826.975L1387.34 811.135L1400.46 800.015ZM1411.82 790.335L1437.26 768.575L1403.74 770.655L1411.82 790.335Z" fill="white"/>
<path d="M1419.01 875.596C1421.13 875.116 1422.81 874.736 1424.05 874.476C1425.27 874.256 1426.37 874.036 1427.33 873.836C1430.63 873.076 1432.87 871.716 1434.05 869.756C1435.21 867.836 1435.41 865.116 1434.61 861.596L1430.45 842.796L1398.85 849.836L1395.17 833.436L1474.85 815.756L1484.37 858.396C1485.05 861.696 1485.21 864.736 1484.85 867.516C1484.53 870.276 1483.77 872.596 1482.61 874.476C1481.49 876.336 1480.05 877.996 1478.29 879.436C1476.57 880.876 1474.81 881.996 1473.01 882.796C1471.25 883.596 1469.41 884.196 1467.49 884.636C1457.83 886.756 1450.29 883.716 1444.85 875.516C1444.57 877.116 1444.33 878.356 1444.13 879.276C1443.97 880.176 1443.65 881.156 1443.17 882.236C1442.69 883.296 1442.23 884.076 1441.81 884.556C1441.43 885.036 1440.69 885.636 1439.57 886.396C1438.45 887.136 1437.43 887.676 1436.53 887.996C1435.61 888.356 1434.13 888.876 1432.05 889.516C1430.01 890.156 1428.07 890.716 1426.21 891.196C1424.33 891.676 1421.73 892.316 1418.37 893.116C1416.65 893.476 1415.37 894.016 1414.53 894.716C1413.67 895.456 1413.01 896.556 1412.53 897.996L1409.65 898.636L1405.81 881.116C1407.41 879.616 1409.05 878.516 1410.77 877.836C1412.47 877.196 1415.21 876.436 1419.01 875.596ZM1461.57 868.796C1463.69 868.316 1465.41 867.636 1466.69 866.796C1467.97 865.996 1468.81 864.916 1469.25 863.596C1469.67 862.316 1469.85 860.996 1469.81 859.676C1469.75 858.396 1469.51 856.796 1469.09 854.876L1464.77 835.196L1444.05 839.756L1448.37 859.436C1448.79 861.296 1449.27 862.836 1449.81 864.076C1450.33 865.356 1451.05 866.476 1451.97 867.436C1452.93 868.396 1454.21 868.976 1455.81 869.196C1457.41 869.456 1459.33 869.316 1461.57 868.796Z" fill="white"/>
<path d="M474.973 1097.02L472.668 1089.65L518.305 1051.68L520.627 1059.21L488.355 1085.32L480.101 1091.41L490.311 1091.66L531.667 1094.47L533.989 1102L474.973 1097.02Z" fill="white"/>
<path d="M485.758 1127.26L536.595 1106.58L539.432 1113.57L488.595 1134.25L485.758 1127.26Z" fill="white"/>
<path d="M540.681 1178.77C535.665 1181.3 530.762 1182.54 525.991 1182.51C521.199 1182.45 516.884 1181.1 513.027 1178.46C509.174 1175.85 506.047 1172.19 503.67 1167.49L494.45 1149.14L543.387 1124.24L551.576 1140.48C555.733 1148.83 556.89 1156.32 555.026 1162.95C553.14 1169.57 548.366 1174.86 540.681 1178.77ZM537.297 1172C543.376 1168.91 547.177 1164.88 548.686 1159.93C550.172 1154.97 549.33 1149.35 546.14 1143.1L541.336 1133.62L503.083 1153.07L508.61 1164.03C510.448 1167.64 512.85 1170.4 515.814 1172.28C518.782 1174.2 522.097 1175.14 525.798 1175.08C529.48 1175.03 533.305 1173.99 537.297 1172Z" fill="white"/>
<path d="M553.874 1207.35L534.374 1219.17L530.55 1212.81L550.051 1200.99L566.767 1166.24L570.955 1173.27L557.184 1201.19L588.078 1201.91L592.346 1208.94L553.874 1207.35Z" fill="white"/>
<path d="M575.444 1277.43L584.254 1262.57L569.098 1242.7L552.559 1247.45L547.825 1241.37L605.006 1225.63L610.109 1232.31L580.022 1283.43L575.444 1277.43ZM603.046 1232.27L602.04 1232.78C599.919 1233.58 597.141 1234.49 593.666 1235.52L575.135 1240.96L587.669 1257.32L597.653 1240.58C598.61 1238.91 599.779 1237.1 601.159 1235.17L603.046 1232.27Z" fill="white"/>
<path d="M644.034 1326.06C640.551 1329.79 636.395 1331.33 631.565 1330.66C626.776 1329.97 621.798 1327.13 616.59 1322.13C606.875 1312.92 604.439 1304.18 609.303 1295.91L615.469 1299.88C613.822 1302.84 613.436 1305.75 614.347 1308.7C615.235 1311.69 617.376 1314.78 620.747 1317.99C624.274 1321.31 627.523 1323.25 630.532 1323.82C633.579 1324.44 636.169 1323.61 638.324 1321.3C639.582 1320.01 640.297 1318.65 640.449 1317.19C640.64 1315.77 640.426 1314.33 639.83 1312.83C639.214 1311.32 638.344 1309.65 637.219 1307.85C636.071 1306.09 634.812 1304.15 633.445 1301.99C630.916 1298.3 629.153 1295.34 628.157 1293.09C627.2 1290.87 626.655 1288.88 626.502 1287.12C626.388 1285.38 626.596 1283.68 627.147 1282.02C627.736 1280.38 628.748 1278.82 630.203 1277.32C633.382 1273.89 637.184 1272.5 641.59 1273.14C645.978 1273.74 650.605 1276.36 655.473 1280.94C660.013 1285.26 662.827 1289.27 663.895 1292.97C664.964 1296.63 664.391 1300.59 662.174 1304.85L656.024 1300.63C657.427 1298.01 657.751 1295.44 656.994 1292.95C656.219 1290.41 654.398 1287.73 651.487 1284.93C648.304 1281.96 645.388 1280.23 642.719 1279.73C640.093 1279.2 637.792 1279.96 635.837 1281.99C634.663 1283.23 634.011 1284.57 633.878 1286.03C633.789 1287.45 634.056 1289.02 634.72 1290.73C635.423 1292.47 637.266 1295.46 640.246 1299.72C641.128 1301.21 642.031 1302.67 642.974 1304.13C643.9 1305.56 644.746 1306.96 645.469 1308.37C646.19 1309.82 646.767 1311.3 647.221 1312.8C647.716 1314.3 647.947 1315.78 647.916 1317.25C647.865 1318.71 647.529 1320.18 646.908 1321.67C646.328 1323.14 645.363 1324.61 644.034 1326.06Z" fill="white"/>
<path d="M674.695 1368.85L679.315 1352.18L659.308 1337.14L644.612 1346.16L638.487 1341.54L689.291 1310.97L696.037 1316.04L680.663 1373.38L674.695 1368.85ZM689.257 1317.98L688.316 1318.73C686.488 1320.05 684.032 1321.65 680.948 1323.57L664.633 1333.8L680.991 1346.16L686.229 1327.41C686.711 1325.54 687.369 1323.47 688.163 1321.17L689.257 1317.98Z" fill="white"/>
<path d="M722.337 1398.06L721.426 1371.18L706.704 1362.5L695.232 1382.25L688.809 1378.51L716.402 1330.9L738.725 1343.96C744.093 1347.07 747.52 1350.69 749.008 1354.8C750.539 1358.87 750.032 1363.06 747.489 1367.35C745.482 1370.87 742.756 1373.23 739.331 1374.42C735.885 1375.63 732.198 1375.5 728.229 1374.05L729.776 1402.45L722.337 1398.06ZM741.061 1363.68C742.636 1360.91 742.904 1358.25 741.884 1355.74C740.907 1353.19 738.637 1350.87 735.093 1348.79L719.82 1339.84L709.71 1357.31L725.22 1366.36C728.667 1368.37 731.743 1369.17 734.491 1368.73C737.221 1368.25 739.417 1366.58 741.061 1363.68Z" fill="white"/>
<path d="M763.534 1417.68L756.417 1414.62L757.723 1355.01L764.915 1358.15L763.432 1399.89L762.628 1410.12L769.436 1402.55L798.663 1372.91L805.855 1376.05L763.534 1417.68Z" fill="white"/>
<path d="M830.415 1441.04L829.064 1423.75L805.16 1416.46L794.4 1430.05L787.076 1427.72L824.476 1381.71L832.604 1384.17L837.583 1443.29L830.415 1441.04ZM826.828 1388.21L826.196 1389.24C824.941 1391.11 823.19 1393.45 820.964 1396.25L809.046 1411.48L828.724 1417.53L827.263 1398.11C827.058 1396.2 826.949 1394.05 826.938 1391.65L826.828 1388.21Z" fill="white"/>
<path d="M891.888 1438.09C890.921 1443.15 888.264 1446.67 883.915 1448.68C879.564 1450.73 873.857 1451.09 866.796 1449.73C853.572 1447.27 846.804 1441.26 846.493 1431.65L853.808 1431.54C853.958 1434.98 855.228 1437.71 857.601 1439.69C860.012 1441.7 863.515 1443.14 868.129 1444.02C872.823 1444.93 876.607 1444.8 879.439 1443.67C882.273 1442.5 883.973 1440.33 884.558 1437.14C884.869 1435.43 884.718 1433.95 884.106 1432.71C883.536 1431.43 882.571 1430.31 881.231 1429.35C879.933 1428.35 878.307 1427.41 876.374 1426.52C874.48 1425.64 872.367 1424.69 870.056 1423.67C865.944 1421.91 862.875 1420.35 860.847 1419.02C858.822 1417.65 857.284 1416.27 856.234 1414.89C855.185 1413.48 854.432 1411.91 854.012 1410.19C853.631 1408.49 853.625 1406.64 854.035 1404.64C854.856 1399.97 857.292 1396.73 861.305 1394.91C865.32 1393.04 870.638 1392.72 877.281 1393.95C883.418 1395.15 887.929 1397.03 890.817 1399.53C893.687 1401.99 895.348 1405.61 895.821 1410.37L888.359 1410.22C888.057 1407.27 886.903 1404.95 884.9 1403.24C882.939 1401.48 880.012 1400.24 876.12 1399.51C871.783 1398.74 868.365 1398.86 865.867 1399.84C863.369 1400.83 861.828 1402.75 861.284 1405.59C860.956 1407.26 861.128 1408.72 861.823 1409.94C862.496 1411.19 863.578 1412.38 865.092 1413.49C866.588 1414.57 869.719 1416.11 874.467 1418.08C876.044 1418.83 877.622 1419.56 879.203 1420.25C880.827 1420.9 882.323 1421.65 883.691 1422.49C885.038 1423.35 886.3 1424.26 887.497 1425.26C888.736 1426.21 889.721 1427.33 890.452 1428.62C891.226 1429.87 891.746 1431.29 891.972 1432.88C892.24 1434.42 892.213 1436.15 891.888 1438.09Z" fill="white"/>
<path d="M927.283 1433.46L925.608 1456.28L918.247 1455.81L919.922 1433L901.169 1399.29L909.333 1399.88L924.101 1427.23L942.557 1402.29L950.721 1402.89L927.283 1433.46Z" fill="white"/>
<path d="M996.685 1456.13L989.721 1440.28L964.807 1441.32L959.071 1457.68L951.416 1458.02L971.577 1402.03L979.959 1401.74L1004.25 1455.87L996.685 1456.13ZM975.866 1407.44L975.633 1408.57C975.046 1410.81 974.177 1413.65 972.99 1417.05L966.807 1435.33L987.323 1434.5L979.507 1416.72C978.745 1414.94 977.917 1412.93 977.043 1410.69L975.866 1407.44Z" fill="white"/>
<path d="M1075.13 1427.68C1076.12 1432.47 1075.16 1436.57 1072.24 1439.98C1069.31 1443.34 1064.76 1445.66 1058.57 1446.95L1036.69 1451.36L1025.79 1397.34L1045.37 1393.35C1057.97 1390.78 1065.17 1393.86 1066.95 1402.62C1067.57 1405.82 1067.18 1408.71 1065.84 1411.28C1064.55 1413.8 1062.31 1415.76 1059.14 1417.13C1063.55 1416.82 1067.11 1417.61 1069.87 1419.52C1072.68 1421.39 1074.42 1424.11 1075.13 1427.68ZM1059.82 1404.94C1059.23 1402.09 1057.8 1400.25 1055.54 1399.46C1053.26 1398.62 1050.26 1398.55 1046.54 1399.3L1034.2 1401.79L1037.68 1418.8L1050.02 1416.32C1053.84 1415.54 1056.58 1414.2 1058.22 1412.35C1059.9 1410.49 1060.44 1408.04 1059.82 1404.94ZM1067.76 1428.6C1066.41 1422.22 1061.32 1419.94 1052.43 1421.77L1038.78 1424.5L1042.76 1444L1056.98 1441.14C1061.43 1440.23 1064.48 1438.73 1066.2 1436.66C1067.89 1434.61 1068.4 1431.91 1067.76 1428.6Z" fill="white"/>
<path d="M1126.76 1427.73L1118.86 1403.42L1090.59 1412.74L1098.48 1437.04L1091.43 1439.38L1074.34 1387.01L1081.39 1384.68L1088.6 1406.82L1116.88 1397.5L1109.66 1375.36L1116.63 1373.02L1133.72 1425.39L1126.76 1427.73Z" fill="white"/>
<path d="M1183.54 1372.12C1186.01 1377.39 1187.2 1382.44 1187.05 1387.27C1186.91 1392.11 1185.46 1396.46 1182.74 1400.37C1180.06 1404.24 1176.21 1407.36 1171.19 1409.76C1166.1 1412.17 1161.23 1413.21 1156.54 1412.92C1151.85 1412.58 1147.59 1410.93 1143.77 1407.95C1140.02 1404.95 1136.89 1400.82 1134.4 1395.54C1130.64 1387.6 1129.88 1380.33 1132.11 1373.79C1134.31 1367.24 1139.3 1362.13 1147.05 1358.41C1152.07 1356.02 1156.89 1354.93 1161.54 1355.16C1166.17 1355.41 1170.38 1357 1174.15 1359.95C1177.97 1362.86 1181.11 1366.91 1183.54 1372.12ZM1176.68 1375.36C1173.75 1369.2 1169.89 1365.11 1165.11 1363.05C1160.37 1360.96 1155.19 1361.27 1149.62 1363.96C1143.93 1366.66 1140.36 1370.47 1138.91 1375.44C1137.46 1380.4 1138.23 1386.04 1141.18 1392.3C1144.16 1398.58 1148.04 1402.8 1152.9 1404.94C1157.73 1407.1 1162.95 1406.85 1168.53 1404.21C1174.23 1401.47 1177.76 1397.61 1179.17 1392.64C1180.62 1387.64 1179.78 1381.88 1176.68 1375.36Z" fill="white"/>
<path d="M1235.47 1338.76C1238.61 1343.65 1240.46 1348.51 1240.97 1353.38C1241.48 1358.2 1240.62 1362.71 1238.41 1366.92C1236.24 1371.08 1232.83 1374.68 1228.15 1377.69C1223.41 1380.78 1218.68 1382.48 1213.94 1382.84C1209.25 1383.15 1204.86 1382.06 1200.75 1379.56C1196.64 1377.08 1193 1373.41 1189.83 1368.52C1185.1 1361.17 1183.41 1354.09 1184.75 1347.32C1186.04 1340.55 1190.3 1334.83 1197.52 1330.1C1202.16 1327.09 1206.77 1325.38 1211.4 1325.02C1216.08 1324.62 1220.48 1325.59 1224.61 1327.97C1228.73 1330.35 1232.36 1333.96 1235.47 1338.76ZM1229.12 1342.93C1225.42 1337.21 1221.05 1333.66 1216.06 1332.24C1211.06 1330.79 1205.96 1331.77 1200.77 1335.2C1195.48 1338.62 1192.45 1342.89 1191.69 1348C1190.88 1353.13 1192.36 1358.61 1196.1 1364.43C1199.91 1370.27 1204.31 1373.95 1209.37 1375.45C1214.48 1376.92 1219.61 1375.97 1224.82 1372.59C1230.11 1369.17 1233.14 1364.92 1233.91 1359.79C1234.66 1354.61 1233.06 1349.01 1229.12 1342.93Z" fill="white"/>
<path d="M1284.25 1314.41C1287.51 1318.36 1288.52 1322.71 1287.25 1327.4C1286.02 1332.05 1282.69 1336.7 1277.2 1341.29C1266.91 1349.94 1257.97 1351.39 1250.37 1345.64L1254.96 1339.89C1257.7 1341.86 1260.58 1342.57 1263.6 1341.98C1266.66 1341.42 1270 1339.65 1273.59 1336.66C1277.24 1333.58 1279.54 1330.57 1280.5 1327.63C1281.43 1324.71 1280.89 1322.01 1278.89 1319.54C1277.72 1318.16 1276.45 1317.3 1275.08 1316.93C1273.74 1316.58 1272.27 1316.63 1270.68 1317.06C1269.08 1317.45 1267.33 1318.14 1265.44 1319.1C1263.53 1320.02 1261.46 1321.05 1259.23 1322.22C1255.33 1324.25 1252.2 1325.65 1249.88 1326.36C1247.52 1327.09 1245.47 1327.43 1243.73 1327.36C1241.94 1327.31 1240.3 1326.9 1238.77 1326.15C1237.19 1325.36 1235.73 1324.15 1234.37 1322.53C1231.34 1318.92 1230.41 1314.98 1231.54 1310.69C1232.68 1306.42 1235.81 1302.13 1240.95 1297.83C1245.75 1293.78 1250.04 1291.44 1253.82 1290.8C1257.59 1290.19 1261.43 1291.18 1265.32 1293.81L1260.58 1299.47C1258.09 1297.8 1255.57 1297.17 1252.98 1297.6C1250.36 1298.05 1247.54 1299.54 1244.5 1302.13C1241.13 1304.97 1239.03 1307.7 1238.22 1310.3C1237.37 1312.91 1237.86 1315.33 1239.71 1317.57C1240.77 1318.84 1242.02 1319.63 1243.46 1319.92C1244.87 1320.17 1246.46 1320.07 1248.28 1319.57C1250.05 1319.09 1253.19 1317.6 1257.73 1315.11C1259.34 1314.39 1260.91 1313.66 1262.42 1312.87C1263.93 1312.05 1265.44 1311.39 1266.93 1310.87C1268.47 1310.32 1270.02 1309.91 1271.56 1309.61C1273.08 1309.34 1274.58 1309.32 1276.03 1309.57C1277.47 1309.78 1278.86 1310.28 1280.24 1311.06C1281.65 1311.8 1282.98 1312.92 1284.25 1314.41Z" fill="white"/>
<path d="M1328.99 1289.99L1310.52 1272.44L1290.08 1294.16L1308.54 1311.71L1303.5 1317.1L1263.56 1279.28L1268.61 1273.89L1285.47 1289.87L1305.92 1268.16L1289.06 1252.18L1294.1 1246.78L1334.04 1284.6L1328.99 1289.99Z" fill="white"/>
<path d="M1367.39 1240.86L1350.71 1236.31L1335.8 1256.42L1344.94 1271.18L1340.33 1277.33L1309.58 1226.47L1314.64 1219.69L1371.83 1234.78L1367.39 1240.86ZM1316.57 1226.5L1317.32 1227.36C1318.67 1229.24 1320.28 1231.71 1322.14 1234.76L1332.56 1251.16L1344.72 1234.63L1326.04 1229.46C1324.19 1228.92 1322.12 1228.3 1319.83 1227.6L1316.57 1226.5Z" fill="white"/>
<path d="M1394.64 1195.59L1339.54 1197.67L1342.91 1199.52L1348.64 1202.65L1380.23 1220.86L1376.95 1226.53L1329.38 1199.08L1333.67 1191.6L1389.2 1189.21C1384.67 1186.97 1381.42 1185.3 1379.44 1184.19L1348.25 1166.17L1351.54 1160.34L1399.11 1187.79L1394.64 1195.59Z" fill="white"/>
<path d="M1421.44 1137.46L1404.17 1137.03L1394.36 1160.06L1406.67 1172.25L1403.63 1179.32L1361.95 1136.99L1365.28 1129.2L1424.39 1130.55L1421.44 1137.46ZM1368.71 1135.37L1369.63 1136.17C1371.39 1137.58 1373.54 1139.57 1376.08 1142.12L1389.93 1155.71L1398.02 1136.72L1378.65 1136.08C1376.66 1136.08 1374.5 1135.96 1372.18 1135.75L1368.71 1135.37Z" fill="white"/>
<path d="M1440.52 1076.22L1405.26 1066.18C1401.39 1065.08 1397.69 1063.87 1394.2 1062.55C1398.32 1065.09 1401.52 1067.23 1403.79 1068.94L1435.82 1092.89L1434.37 1097.93L1394.51 1101.55L1387.51 1101.76L1383.04 1101.89L1387.2 1102.97L1394.3 1104.88L1429.56 1114.92L1427.71 1121.25L1374.97 1106.19L1377.67 1096.82L1418.18 1093.17C1419.81 1093.06 1421.56 1093.01 1423.39 1093C1425.23 1093.02 1426.53 1093.04 1427.28 1093.08C1426.39 1092.66 1425.04 1091.84 1423.21 1090.63C1421.34 1089.37 1420.15 1088.56 1419.63 1088.2L1387.05 1063.89L1389.66 1054.68L1442.39 1069.73L1440.52 1076.22Z" fill="white"/>
<mask id="mask9_9_804" style="mask-type:luminance" maskUnits="userSpaceOnUse" x="451" y="971" width="64" height="63">
<path d="M451.94 971.48H514.22V1033.74H451.94V971.48Z" fill="white"/>
</mask>
<g mask="url(#mask9_9_804)">
<mask id="mask10_9_804" style="mask-type:luminance" maskUnits="userSpaceOnUse" x="451" y="971" width="64" height="63">
<path d="M483.08 971.48C465.88 971.48 451.94 985.42 451.94 1002.6C451.94 1019.8 465.88 1033.74 483.08 1033.74C500.28 1033.74 514.22 1019.8 514.22 1002.6C514.22 985.42 500.28 971.48 483.08 971.48Z" fill="white"/>
</mask>
<g mask="url(#mask10_9_804)">
<path d="M451.94 971.48H514.22V1033.74H451.94V971.48Z" fill="#CEA348"/>
</g>
</g>
<mask id="mask11_9_804" style="mask-type:luminance" maskUnits="userSpaceOnUse" x="1406" y="971" width="64" height="63">
<path d="M1406.76 971.48H1469.04V1033.74H1406.76V971.48Z" fill="white"/>
</mask>
<g mask="url(#mask11_9_804)">
<mask id="mask12_9_804" style="mask-type:luminance" maskUnits="userSpaceOnUse" x="1406" y="971" width="64" height="63">
<path d="M1437.9 971.48C1420.7 971.48 1406.76 985.42 1406.76 1002.6C1406.76 1019.8 1420.7 1033.74 1437.9 1033.74C1455.1 1033.74 1469.04 1019.8 1469.04 1002.6C1469.04 985.42 1455.1 971.48 1437.9 971.48Z" fill="white"/>
</mask>
<g mask="url(#mask12_9_804)">
<path d="M1406.76 971.48H1469.04V1033.74H1406.76V971.48Z" fill="#CEA348"/>
</g>
</g>
</svg>
